<svg xmlns="http://www.w3.org/2000/svg" viewBox="0 0 21.713 21.713">
  <path id="shopping-cart_1_" data-name="shopping-cart (1)" d="M22.213,7.295v3.393a.848.848,0,0,1-.848.848h-.558l-.357,3.18a.848.848,0,0,1-1.686-.189l.442-3.934a.848.848,0,0,1,.843-.754h.468v-1.7H2.2v1.7H16.657a.848.848,0,1,1,0,1.7H3.628l.838,6.987A1.7,1.7,0,0,0,6.15,20.017H16.63a1.7,1.7,0,0,0,1.686-1.507A.848.848,0,0,1,20,18.7a3.39,3.39,0,0,1-3.372,3.014H6.15a3.4,3.4,0,0,1-3.369-2.989L1.92,11.535H1.348A.848.848,0,0,1,.5,10.687V7.295a.848.848,0,0,1,.848-.848H4.356L8.838.346a.848.848,0,0,1,1.367,1l-3.744,5.1h9.822l-3.744-5.1a.848.848,0,0,1,1.367-1l4.482,6.1h2.977a.848.848,0,0,1,.848.848Zm-11.7,6.785v3.393a.848.848,0,1,0,1.7,0V14.08a.848.848,0,1,0-1.7,0Zm3.393,0v3.393a.848.848,0,1,0,1.7,0V14.08a.848.848,0,1,0-1.7,0Zm-6.785,0v3.393a.848.848,0,1,0,1.7,0V14.08a.848.848,0,0,0-1.7,0Zm0,0" transform="translate(-0.499 0)" fill="#fff"/>
</svg>