<svg id="computer" xmlns="http://www.w3.org/2000/svg" viewBox="0 0 21.5 21.5">
  <path id="Path_1767" data-name="Path 1767" d="M17.3,0H4.2A4.2,4.2,0,0,0,0,4.2v8.4a4.2,4.2,0,0,0,4.2,4.2H17.3a4.2,4.2,0,0,0,4.2-4.2V4.2A4.2,4.2,0,0,0,17.3,0Zm2.52,12.6a2.522,2.522,0,0,1-2.52,2.52H4.2A2.522,2.522,0,0,1,1.68,12.6V4.2A2.522,2.522,0,0,1,4.2,1.68H17.3A2.522,2.522,0,0,1,19.82,4.2Z" fill="#a4a4a4"/>
  <path id="Path_1768" data-name="Path 1768" d="M160.2,432a.84.84,0,0,0-.84.84v.84h-2.52a.84.84,0,0,0,0,1.68h6.719a.84.84,0,0,0,0-1.68h-2.52v-.84A.84.84,0,0,0,160.2,432Z" transform="translate(-149.449 -413.859)" fill="#a4a4a4"/>
  <path id="Path_1769" data-name="Path 1769" d="M93.941,240H80.84a.84.84,0,0,0,0,1.68h13.1a.84.84,0,0,0,0-1.68Z" transform="translate(-76.641 -229.922)" fill="#a4a4a4"/>
</svg>