<svg width="17" height="18" viewBox="0 0 17 18" fill="none" xmlns="http://www.w3.org/2000/svg">
<path d="M15.5833 6.535V3.31917C15.5833 2.32042 15.13 1.91667 14.0038 1.91667H11.1421C10.0158 1.91667 9.5625 2.32042 9.5625 3.31917V6.52792C9.5625 7.53375 10.0158 7.93042 11.1421 7.93042H14.0038C15.13 7.9375 15.5833 7.53375 15.5833 6.535Z" stroke="#FFFFFF" stroke-width="1.2" stroke-linecap="round" stroke-linejoin="round"/>
<path d="M15.5833 14.5038V11.6421C15.5833 10.5158 15.13 10.0625 14.0038 10.0625H11.1421C10.0158 10.0625 9.5625 10.5158 9.5625 11.6421V14.5038C9.5625 15.63 10.0158 16.0833 11.1421 16.0833H14.0038C15.13 16.0833 15.5833 15.63 15.5833 14.5038Z" stroke="#FFFFFF" stroke-width="1.2" stroke-linecap="round" stroke-linejoin="round"/>
<path d="M7.43758 6.535V3.31917C7.43758 2.32042 6.98425 1.91667 5.858 1.91667H2.99633C1.87008 1.91667 1.41675 2.32042 1.41675 3.31917V6.52792C1.41675 7.53375 1.87008 7.93042 2.99633 7.93042H5.858C6.98425 7.9375 7.43758 7.53375 7.43758 6.535Z" stroke="#FFFFFF" stroke-width="1.2" stroke-linecap="round" stroke-linejoin="round"/>
<path d="M7.43758 14.5038V11.6421C7.43758 10.5158 6.98425 10.0625 5.858 10.0625H2.99633C1.87008 10.0625 1.41675 10.5158 1.41675 11.6421V14.5038C1.41675 15.63 1.87008 16.0833 2.99633 16.0833H5.858C6.98425 16.0833 7.43758 15.63 7.43758 14.5038Z" stroke="#FFFFFF" stroke-width="1.2" stroke-linecap="round" stroke-linejoin="round"/>
</svg>
